<?xml version="1.0" standalone="no"?>
<!DOCTYPE svg PUBLIC "-//W3C//DTD SVG 1.1//EN"
  "http://www.w3.org/Graphics/SVG/1.1/DTD/svg11.dtd">
<!-- Created with matplotlib (http://matplotlib.sourceforge.net/) -->
<svg width="576pt" height="432pt" viewBox="0 0 576 432"
   xmlns="http://www.w3.org/2000/svg"
   xmlns:xlink="http://www.w3.org/1999/xlink"
   version="1.1"
   id="svg1">
<filter id="colorAdd"><feComposite in="SourceGraphic" in2="BackgroundImage" operator="arithmetic" k2="1" k3="1"/></filter>
<g id="figure1">
<g id="patch1">
<path style="fill: #ffffff; stroke: #ffffff; stroke-width: 1.000000; stroke-linejoin: round; stroke-linecap: square;  opacity: 1.000000"  d="M0.000000 432.000000L576.000000 432.000000L576.000000 0.000000
L0.000000 0.000000z"/>
</g>
<g id="axes1">
<g id="patch2">
<path style="fill: #ffffff; opacity: 1.000000"  d="M72.000000 371.520000L518.400000 371.520000L518.400000 43.200000
L72.000000 43.200000z"/>
</g>
<g id="CircleCollection1">
<defs>
<path id="coll0_0_463aa1f94d5306dc31e18f58b56157fb" d="M0.000000 2.523133C0.669143 2.523133 1.310969 2.257279 1.784124 1.784124
C2.257279 1.310969 2.523133 0.669143 2.523133 0.000000
C2.523133 -0.669143 2.257279 -1.310969 1.784124 -1.784124
C1.310969 -2.257279 0.669143 -2.523133 0.000000 -2.523133
C-0.669143 -2.523133 -1.310969 -2.257279 -1.784124 -1.784124
C-2.257279 -1.310969 -2.523133 -0.669143 -2.523133 0.000000
C-2.523133 0.669143 -2.257279 1.310969 -1.784124 1.784124
C-1.310969 2.257279 -0.669143 2.523133 0.000000 2.523133z"/>
</defs>
<defs>
  <clipPath id="pb19cc80316c18f13ecb9cec47d64cecb">
<rect x="72.000000" y="43.200000" width="446.400000" height="328.320000"/>
  </clipPath>
</defs><g clip-path="url(#pb19cc80316c18f13ecb9cec47d64cecb)"><use style="fill: #0000ff; stroke: #000000; stroke-width: 1.000000; stroke-linejoin: round; stroke-linecap: butt;  opacity: 1.000000" xlink:href="#coll0_0_463aa1f94d5306dc31e18f58b56157fb" x="398.062619" y="227.765342"/>
</g><g clip-path="url(#pb19cc80316c18f13ecb9cec47d64cecb)"><use style="fill: #0000ff; stroke: #000000; stroke-width: 1.000000; stroke-linejoin: round; stroke-linecap: butt;  opacity: 1.000000" xlink:href="#coll0_0_463aa1f94d5306dc31e18f58b56157fb" x="417.118634" y="308.145969"/>
</g><g clip-path="url(#pb19cc80316c18f13ecb9cec47d64cecb)"><use style="fill: #0000ff; stroke: #000000; stroke-width: 1.000000; stroke-linejoin: round; stroke-linecap: butt;  opacity: 1.000000" xlink:href="#coll0_0_463aa1f94d5306dc31e18f58b56157fb" x="196.755650" y="326.378751"/>
</g><g clip-path="url(#pb19cc80316c18f13ecb9cec47d64cecb)"><use style="fill: #0000ff; stroke: #000000; stroke-width: 1.000000; stroke-linejoin: round; stroke-linecap: butt;  opacity: 1.000000" xlink:href="#coll0_0_463aa1f94d5306dc31e18f58b56157fb" x="366.400824" y="260.537211"/>
</g><g clip-path="url(#pb19cc80316c18f13ecb9cec47d64cecb)"><use style="fill: #0000ff; stroke: #000000; stroke-width: 1.000000; stroke-linejoin: round; stroke-linecap: butt;  opacity: 1.000000" xlink:href="#coll0_0_463aa1f94d5306dc31e18f58b56157fb" x="204.307208" y="286.847364"/>
</g><g clip-path="url(#pb19cc80316c18f13ecb9cec47d64cecb)"><use style="fill: #0000ff; stroke: #000000; stroke-width: 1.000000; stroke-linejoin: round; stroke-linecap: butt;  opacity: 1.000000" xlink:href="#coll0_0_463aa1f94d5306dc31e18f58b56157fb" x="267.608644" y="335.788305"/>
</g><g clip-path="url(#pb19cc80316c18f13ecb9cec47d64cecb)"><use style="fill: #0000ff; stroke: #000000; stroke-width: 1.000000; stroke-linejoin: round; stroke-linecap: butt;  opacity: 1.000000" xlink:href="#coll0_0_463aa1f94d5306dc31e18f58b56157fb" x="261.150961" y="238.430817"/>
</g><g clip-path="url(#pb19cc80316c18f13ecb9cec47d64cecb)"><use style="fill: #0000ff; stroke: #000000; stroke-width: 1.000000; stroke-linejoin: round; stroke-linecap: butt;  opacity: 1.000000" xlink:href="#coll0_0_463aa1f94d5306dc31e18f58b56157fb" x="251.895829" y="262.816202"/>
</g><g clip-path="url(#pb19cc80316c18f13ecb9cec47d64cecb)"><use style="fill: #0000ff; stroke: #000000; stroke-width: 1.000000; stroke-linejoin: round; stroke-linecap: butt;  opacity: 1.000000" xlink:href="#coll0_0_463aa1f94d5306dc31e18f58b56157fb" x="331.661375" y="298.370835"/>
</g><g clip-path="url(#pb19cc80316c18f13ecb9cec47d64cecb)"><use style="fill: #0000ff; stroke: #000000; stroke-width: 1.000000; stroke-linejoin: round; stroke-linecap: butt;  opacity: 1.000000" xlink:href="#coll0_0_463aa1f94d5306dc31e18f58b56157fb" x="113.432850" y="241.691010"/>
</g><g clip-path="url(#pb19cc80316c18f13ecb9cec47d64cecb)"><use style="fill: #0000ff; stroke: #000000; stroke-width: 1.000000; stroke-linejoin: round; stroke-linecap: butt;  opacity: 1.000000" xlink:href="#coll0_0_463aa1f94d5306dc31e18f58b56157fb" x="269.508421" y="322.556817"/>
</g><g clip-path="url(#pb19cc80316c18f13ecb9cec47d64cecb)"><use style="fill: #0000ff; stroke: #000000; stroke-width: 1.000000; stroke-linejoin: round; stroke-linecap: butt;  opacity: 1.000000" xlink:href="#coll0_0_463aa1f94d5306dc31e18f58b56157fb" x="422.290537" y="236.084903"/>
</g><g clip-path="url(#pb19cc80316c18f13ecb9cec47d64cecb)"><use style="fill: #0000ff; stroke: #000000; stroke-width: 1.000000; stroke-linejoin: round; stroke-linecap: butt;  opacity: 1.000000" xlink:href="#coll0_0_463aa1f94d5306dc31e18f58b56157fb" x="374.949799" y="108.848773"/>
</g><g clip-path="url(#pb19cc80316c18f13ecb9cec47d64cecb)"><use style="fill: #0000ff; stroke: #000000; stroke-width: 1.000000; stroke-linejoin: round; stroke-linecap: butt;  opacity: 1.000000" xlink:href="#coll0_0_463aa1f94d5306dc31e18f58b56157fb" x="387.716117" y="263.635850"/>
</g><g clip-path="url(#pb19cc80316c18f13ecb9cec47d64cecb)"><use style="fill: #0000ff; stroke: #000000; stroke-width: 1.000000; stroke-linejoin: round; stroke-linecap: butt;  opacity: 1.000000" xlink:href="#coll0_0_463aa1f94d5306dc31e18f58b56157fb" x="231.825508" y="343.133235"/>
</g><g clip-path="url(#pb19cc80316c18f13ecb9cec47d64cecb)"><use style="fill: #0000ff; stroke: #000000; stroke-width: 1.000000; stroke-linejoin: round; stroke-linecap: butt;  opacity: 1.000000" xlink:href="#coll0_0_463aa1f94d5306dc31e18f58b56157fb" x="376.289430" y="190.249355"/>
</g><g clip-path="url(#pb19cc80316c18f13ecb9cec47d64cecb)"><use style="fill: #0000ff; stroke: #000000; stroke-width: 1.000000; stroke-linejoin: round; stroke-linecap: butt;  opacity: 1.000000" xlink:href="#coll0_0_463aa1f94d5306dc31e18f58b56157fb" x="460.797085" y="283.484502"/>
</g><g clip-path="url(#pb19cc80316c18f13ecb9cec47d64cecb)"><use style="fill: #0000ff; stroke: #000000; stroke-width: 1.000000; stroke-linejoin: round; stroke-linecap: butt;  opacity: 1.000000" xlink:href="#coll0_0_463aa1f94d5306dc31e18f58b56157fb" x="272.759591" y="290.871410"/>
</g><g clip-path="url(#pb19cc80316c18f13ecb9cec47d64cecb)"><use style="fill: #0000ff; stroke: #000000; stroke-width: 1.000000; stroke-linejoin: round; stroke-linecap: butt;  opacity: 1.000000" xlink:href="#coll0_0_463aa1f94d5306dc31e18f58b56157fb" x="256.163280" y="282.854424"/>
</g><g clip-path="url(#pb19cc80316c18f13ecb9cec47d64cecb)"><use style="fill: #0000ff; stroke: #000000; stroke-width: 1.000000; stroke-linejoin: round; stroke-linecap: butt;  opacity: 1.000000" xlink:href="#coll0_0_463aa1f94d5306dc31e18f58b56157fb" x="247.234597" y="352.177788"/>
</g><g clip-path="url(#pb19cc80316c18f13ecb9cec47d64cecb)"><use style="fill: #0000ff; stroke: #000000; stroke-width: 1.000000; stroke-linejoin: round; stroke-linecap: butt;  opacity: 1.000000" xlink:href="#coll0_0_463aa1f94d5306dc31e18f58b56157fb" x="319.126410" y="329.306965"/>
</g><g clip-path="url(#pb19cc80316c18f13ecb9cec47d64cecb)"><use style="fill: #0000ff; stroke: #000000; stroke-width: 1.000000; stroke-linejoin: round; stroke-linecap: butt;  opacity: 1.000000" xlink:href="#coll0_0_463aa1f94d5306dc31e18f58b56157fb" x="223.879620" y="344.356559"/>
</g><g clip-path="url(#pb19cc80316c18f13ecb9cec47d64cecb)"><use style="fill: #0000ff; stroke: #000000; stroke-width: 1.000000; stroke-linejoin: round; stroke-linecap: butt;  opacity: 1.000000" xlink:href="#coll0_0_463aa1f94d5306dc31e18f58b56157fb" x="158.018153" y="248.272645"/>
</g><g clip-path="url(#pb19cc80316c18f13ecb9cec47d64cecb)"><use style="fill: #0000ff; stroke: #000000; stroke-width: 1.000000; stroke-linejoin: round; stroke-linecap: butt;  opacity: 1.000000" xlink:href="#coll0_0_463aa1f94d5306dc31e18f58b56157fb" x="402.060131" y="292.902873"/>
</g><g clip-path="url(#pb19cc80316c18f13ecb9cec47d64cecb)"><use style="fill: #0000ff; stroke: #000000; stroke-width: 1.000000; stroke-linejoin: round; stroke-linecap: butt;  opacity: 1.000000" xlink:href="#coll0_0_463aa1f94d5306dc31e18f58b56157fb" x="368.781016" y="118.099897"/>
</g><g clip-path="url(#pb19cc80316c18f13ecb9cec47d64cecb)"><use style="fill: #0000ff; stroke: #000000; stroke-width: 1.000000; stroke-linejoin: round; stroke-linecap: butt;  opacity: 1.000000" xlink:href="#coll0_0_463aa1f94d5306dc31e18f58b56157fb" x="338.322246" y="244.364888"/>
</g><g clip-path="url(#pb19cc80316c18f13ecb9cec47d64cecb)"><use style="fill: #0000ff; stroke: #000000; stroke-width: 1.000000; stroke-linejoin: round; stroke-linecap: butt;  opacity: 1.000000" xlink:href="#coll0_0_463aa1f94d5306dc31e18f58b56157fb" x="334.607295" y="266.298485"/>
</g><g clip-path="url(#pb19cc80316c18f13ecb9cec47d64cecb)"><use style="fill: #0000ff; stroke: #000000; stroke-width: 1.000000; stroke-linejoin: round; stroke-linecap: butt;  opacity: 1.000000" xlink:href="#coll0_0_463aa1f94d5306dc31e18f58b56157fb" x="331.074060" y="188.238903"/>
</g><g clip-path="url(#pb19cc80316c18f13ecb9cec47d64cecb)"><use style="fill: #0000ff; stroke: #000000; stroke-width: 1.000000; stroke-linejoin: round; stroke-linecap: butt;  opacity: 1.000000" xlink:href="#coll0_0_463aa1f94d5306dc31e18f58b56157fb" x="379.098413" y="189.843956"/>
</g><g clip-path="url(#pb19cc80316c18f13ecb9cec47d64cecb)"><use style="fill: #0000ff; stroke: #000000; stroke-width: 1.000000; stroke-linejoin: round; stroke-linecap: butt;  opacity: 1.000000" xlink:href="#coll0_0_463aa1f94d5306dc31e18f58b56157fb" x="216.771231" y="297.805963"/>
</g><g clip-path="url(#pb19cc80316c18f13ecb9cec47d64cecb)"><use style="fill: #0000ff; stroke: #000000; stroke-width: 1.000000; stroke-linejoin: round; stroke-linecap: butt;  opacity: 1.000000" xlink:href="#coll0_0_463aa1f94d5306dc31e18f58b56157fb" x="262.886690" y="302.168804"/>
</g><g clip-path="url(#pb19cc80316c18f13ecb9cec47d64cecb)"><use style="fill: #0000ff; stroke: #000000; stroke-width: 1.000000; stroke-linejoin: round; stroke-linecap: butt;  opacity: 1.000000" xlink:href="#coll0_0_463aa1f94d5306dc31e18f58b56157fb" x="453.440580" y="176.827317"/>
</g><g clip-path="url(#pb19cc80316c18f13ecb9cec47d64cecb)"><use style="fill: #0000ff; stroke: #000000; stroke-width: 1.000000; stroke-linejoin: round; stroke-linecap: butt;  opacity: 1.000000" xlink:href="#coll0_0_463aa1f94d5306dc31e18f58b56157fb" x="126.486019" y="256.311498"/>
</g><g clip-path="url(#pb19cc80316c18f13ecb9cec47d64cecb)"><use style="fill: #0000ff; stroke: #000000; stroke-width: 1.000000; stroke-linejoin: round; stroke-linecap: butt;  opacity: 1.000000" xlink:href="#coll0_0_463aa1f94d5306dc31e18f58b56157fb" x="475.459809" y="160.175065"/>
</g></g>
<g id="line2d1">
<path style="fill: none; stroke: #ff0000; stroke-width: 1.000000; stroke-linejoin: round; stroke-linecap: square;  opacity: 1.000000" clip-path="url(#pb19cc80316c18f13ecb9cec47d64cecb)" d="M398.062619 235.375778L417.118634 229.897412L196.755650 293.249016
L366.400824 244.478148L204.307208 291.078038L267.608644 272.879666
L261.150961 274.736169L251.895829 277.396904L331.661375 254.465306
L113.432850 317.203280L269.508421 272.333504L422.290537 228.410554
L374.949799 242.020425L387.716117 238.350268L231.825508 283.166870
L376.289430 241.635298L460.797085 217.340403L272.759591 271.398833
L256.163280 276.170065L247.234597 278.736950L319.126410 258.068952
L223.879620 285.451214L158.018153 304.385563L402.060131 234.226543
L368.781016 243.793873L338.322246 252.550389L334.607295 253.618391
L331.074060 254.634151L379.098413 240.827750L216.771231 287.494787
L262.886690 274.237168L453.440580 219.455306L126.486019 313.450657
L475.459809 213.125053"/>
</g>
<g id="matplotlib.axis1">
<g id="xtick1">
<g id="line2d2">
<defs><path id="m30e32995789d870ad79a2e54c91cf9c6" d="M0.000000 0.000000L0.000000 -4.000000"/></defs>
<g ><use style="fill: none; stroke: #000000; stroke-width: 0.500000; stroke-linejoin: round; stroke-linecap: butt;  opacity: 1.000000" xlink:href="#m30e32995789d870ad79a2e54c91cf9c6" x="72.000000" y="371.520000"/>
</g></g>
<g id="line2d3">
<defs><path id="m9281cae24120827b11d5ea8a7ad3e96b" d="M0.000000 0.000000L0.000000 4.000000"/></defs>
<g ><use style="fill: none; stroke: #000000; stroke-width: 0.500000; stroke-linejoin: round; stroke-linecap: butt;  opacity: 1.000000" xlink:href="#m9281cae24120827b11d5ea8a7ad3e96b" x="72.000000" y="43.200000"/>
</g></g>
<g id="text1">
<defs>
<path id="c_7a2040fe3b94fcd41d0a72c84e93b115" d="M31.781250 -66.406250q-7.609375 0.000000 -11.453125 7.500000q-3.828125 7.484375 -3.828125 22.531250q0.000000 14.984375 3.828125 22.484375q3.843750 7.500000 11.453125 7.500000q7.671875 0.000000 11.500000 -7.500000q3.843750 -7.500000 3.843750 -22.484375q0.000000 -15.046875 -3.843750 -22.531250q-3.828125 -7.500000 -11.500000 -7.500000M31.781250 -74.218750q12.265625 0.000000 18.734375 9.703125q6.468750 9.687500 6.468750 28.140625q0.000000 18.406250 -6.468750 28.109375q-6.468750 9.687500 -18.734375 9.687500q-12.250000 0.000000 -18.718750 -9.687500q-6.468750 -9.703125 -6.468750 -28.109375q0.000000 -18.453125 6.468750 -28.140625q6.468750 -9.703125 18.718750 -9.703125"/>
<path id="c_ed3e21196fb739f392806f09ca0594ef" d="M10.687500 -12.406250l10.312500 0.000000l0.000000 12.406250l-10.312500 0.000000z"/>
<path id="c_42baa63129a918535c52adb20d687ea7" d="M12.406250 -8.296875l16.109375 0.000000l0.000000 -55.625000l-17.531250 3.515625l0.000000 -8.984375l17.437500 -3.515625l9.859375 0.000000l0.000000 64.609375l16.109375 0.000000l0.000000 8.296875l-41.984375 0.000000z"/>
</defs>
<g style="fill: #000000; opacity: 1.000000" transform="translate(59.429688,384.426250)scale(0.120000)">
<use xlink:href="#c_7a2040fe3b94fcd41d0a72c84e93b115"/>
<use xlink:href="#c_ed3e21196fb739f392806f09ca0594ef" x="63.623047"/>
<use xlink:href="#c_42baa63129a918535c52adb20d687ea7" x="95.410156"/>
<use xlink:href="#c_7a2040fe3b94fcd41d0a72c84e93b115" x="159.033203"/>
</g>
</g>
</g>
<g id="xtick2">
<g id="line2d4">
<g ><use style="fill: none; stroke: #000000; stroke-width: 0.500000; stroke-linejoin: round; stroke-linecap: butt;  opacity: 1.000000" xlink:href="#m30e32995789d870ad79a2e54c91cf9c6" x="183.600000" y="371.520000"/>
</g></g>
<g id="line2d5">
<g ><use style="fill: none; stroke: #000000; stroke-width: 0.500000; stroke-linejoin: round; stroke-linecap: butt;  opacity: 1.000000" xlink:href="#m9281cae24120827b11d5ea8a7ad3e96b" x="183.600000" y="43.200000"/>
</g></g>
<g id="text2">
<defs>
<path id="c_1260a2df50f305f3db244e29828f968e" d="M10.796875 -72.906250l38.718750 0.000000l0.000000 8.312500l-29.687500 0.000000l0.000000 17.859375q2.140625 -0.734375 4.281250 -1.093750q2.156250 -0.359375 4.312500 -0.359375q12.203125 0.000000 19.328125 6.687500q7.140625 6.687500 7.140625 18.109375q0.000000 11.765625 -7.328125 18.296875q-7.328125 6.515625 -20.656250 6.515625q-4.593750 0.000000 -9.359375 -0.781250q-4.750000 -0.781250 -9.828125 -2.343750l0.000000 -9.921875q4.390625 2.390625 9.078125 3.562500q4.687500 1.171875 9.906250 1.171875q8.453125 0.000000 13.375000 -4.437500q4.937500 -4.437500 4.937500 -12.062500q0.000000 -7.609375 -4.937500 -12.046875q-4.921875 -4.453125 -13.375000 -4.453125q-3.953125 0.000000 -7.890625 0.875000q-3.921875 0.875000 -8.015625 2.734375z"/>
</defs>
<g style="fill: #000000; opacity: 1.000000" transform="translate(171.154687,384.426250)scale(0.120000)">
<use xlink:href="#c_7a2040fe3b94fcd41d0a72c84e93b115"/>
<use xlink:href="#c_ed3e21196fb739f392806f09ca0594ef" x="63.623047"/>
<use xlink:href="#c_42baa63129a918535c52adb20d687ea7" x="95.410156"/>
<use xlink:href="#c_1260a2df50f305f3db244e29828f968e" x="159.033203"/>
</g>
</g>
</g>
<g id="xtick3">
<g id="line2d6">
<g ><use style="fill: none; stroke: #000000; stroke-width: 0.500000; stroke-linejoin: round; stroke-linecap: butt;  opacity: 1.000000" xlink:href="#m30e32995789d870ad79a2e54c91cf9c6" x="295.200000" y="371.520000"/>
</g></g>
<g id="line2d7">
<g ><use style="fill: none; stroke: #000000; stroke-width: 0.500000; stroke-linejoin: round; stroke-linecap: butt;  opacity: 1.000000" xlink:href="#m9281cae24120827b11d5ea8a7ad3e96b" x="295.200000" y="43.200000"/>
</g></g>
<g id="text3">
<defs>
<path id="c_ed3f3ed3ebfbd18bcb9c012009a68ad1" d="M19.187500 -8.296875l34.421875 0.000000l0.000000 8.296875l-46.281250 0.000000l0.000000 -8.296875q5.609375 -5.812500 15.296875 -15.593750q9.703125 -9.796875 12.187500 -12.640625q4.734375 -5.312500 6.609375 -9.000000q1.890625 -3.687500 1.890625 -7.250000q0.000000 -5.812500 -4.078125 -9.468750q-4.078125 -3.671875 -10.625000 -3.671875q-4.640625 0.000000 -9.796875 1.609375q-5.140625 1.609375 -11.000000 4.890625l0.000000 -9.968750q5.953125 -2.390625 11.125000 -3.609375q5.187500 -1.218750 9.484375 -1.218750q11.328125 0.000000 18.062500 5.671875q6.734375 5.656250 6.734375 15.125000q0.000000 4.500000 -1.687500 8.531250q-1.671875 4.015625 -6.125000 9.484375q-1.218750 1.421875 -7.765625 8.187500q-6.531250 6.765625 -18.453125 18.921875"/>
</defs>
<g style="fill: #000000; opacity: 1.000000" transform="translate(282.629687,384.426250)scale(0.120000)">
<use xlink:href="#c_7a2040fe3b94fcd41d0a72c84e93b115"/>
<use xlink:href="#c_ed3e21196fb739f392806f09ca0594ef" x="63.623047"/>
<use xlink:href="#c_ed3f3ed3ebfbd18bcb9c012009a68ad1" x="95.410156"/>
<use xlink:href="#c_7a2040fe3b94fcd41d0a72c84e93b115" x="159.033203"/>
</g>
</g>
</g>
<g id="xtick4">
<g id="line2d8">
<g ><use style="fill: none; stroke: #000000; stroke-width: 0.500000; stroke-linejoin: round; stroke-linecap: butt;  opacity: 1.000000" xlink:href="#m30e32995789d870ad79a2e54c91cf9c6" x="406.800000" y="371.520000"/>
</g></g>
<g id="line2d9">
<g ><use style="fill: none; stroke: #000000; stroke-width: 0.500000; stroke-linejoin: round; stroke-linecap: butt;  opacity: 1.000000" xlink:href="#m9281cae24120827b11d5ea8a7ad3e96b" x="406.800000" y="43.200000"/>
</g></g>
<g id="text4">
<g style="fill: #000000; opacity: 1.000000" transform="translate(394.354687,384.426250)scale(0.120000)">
<use xlink:href="#c_7a2040fe3b94fcd41d0a72c84e93b115"/>
<use xlink:href="#c_ed3e21196fb739f392806f09ca0594ef" x="63.623047"/>
<use xlink:href="#c_ed3f3ed3ebfbd18bcb9c012009a68ad1" x="95.410156"/>
<use xlink:href="#c_1260a2df50f305f3db244e29828f968e" x="159.033203"/>
</g>
</g>
</g>
<g id="xtick5">
<g id="line2d10">
<g ><use style="fill: none; stroke: #000000; stroke-width: 0.500000; stroke-linejoin: round; stroke-linecap: butt;  opacity: 1.000000" xlink:href="#m30e32995789d870ad79a2e54c91cf9c6" x="518.400000" y="371.520000"/>
</g></g>
<g id="line2d11">
<g ><use style="fill: none; stroke: #000000; stroke-width: 0.500000; stroke-linejoin: round; stroke-linecap: butt;  opacity: 1.000000" xlink:href="#m9281cae24120827b11d5ea8a7ad3e96b" x="518.400000" y="43.200000"/>
</g></g>
<g id="text5">
<defs>
<path id="c_3dcfa38a02242cb63ec6726c6e70be7a" d="M40.578125 -39.312500q7.078125 1.515625 11.046875 6.312500q3.984375 4.781250 3.984375 11.812500q0.000000 10.781250 -7.421875 16.703125q-7.421875 5.906250 -21.093750 5.906250q-4.578125 0.000000 -9.437500 -0.906250q-4.859375 -0.906250 -10.031250 -2.718750l0.000000 -9.515625q4.093750 2.390625 8.968750 3.609375q4.890625 1.218750 10.218750 1.218750q9.265625 0.000000 14.125000 -3.656250q4.859375 -3.656250 4.859375 -10.640625q0.000000 -6.453125 -4.515625 -10.078125q-4.515625 -3.640625 -12.562500 -3.640625l-8.500000 0.000000l0.000000 -8.109375l8.890625 0.000000q7.265625 0.000000 11.125000 -2.906250q3.859375 -2.906250 3.859375 -8.375000q0.000000 -5.609375 -3.984375 -8.609375q-3.968750 -3.015625 -11.390625 -3.015625q-4.062500 0.000000 -8.703125 0.890625q-4.640625 0.875000 -10.203125 2.718750l0.000000 -8.781250q5.625000 -1.562500 10.531250 -2.343750q4.906250 -0.781250 9.250000 -0.781250q11.234375 0.000000 17.765625 5.109375q6.546875 5.093750 6.546875 13.781250q0.000000 6.062500 -3.468750 10.234375q-3.468750 4.171875 -9.859375 5.781250"/>
</defs>
<g style="fill: #000000; opacity: 1.000000" transform="translate(505.829687,384.426250)scale(0.120000)">
<use xlink:href="#c_7a2040fe3b94fcd41d0a72c84e93b115"/>
<use xlink:href="#c_ed3e21196fb739f392806f09ca0594ef" x="63.623047"/>
<use xlink:href="#c_3dcfa38a02242cb63ec6726c6e70be7a" x="95.410156"/>
<use xlink:href="#c_7a2040fe3b94fcd41d0a72c84e93b115" x="159.033203"/>
</g>
</g>
</g>
<g id="text6">
<defs>
<path id="c_a469f8ee191679fe73f3b765bd271597" d="M64.406250 -67.281250l0.000000 10.390625q-4.984375 -4.640625 -10.625000 -6.921875q-5.640625 -2.296875 -11.984375 -2.296875q-12.500000 0.000000 -19.140625 7.640625q-6.640625 7.640625 -6.640625 22.093750q0.000000 14.406250 6.640625 22.046875q6.640625 7.640625 19.140625 7.640625q6.343750 0.000000 11.984375 -2.296875q5.640625 -2.296875 10.625000 -6.937500l0.000000 10.312500q-5.171875 3.515625 -10.968750 5.281250q-5.781250 1.750000 -12.218750 1.750000q-16.562500 0.000000 -26.093750 -10.125000q-9.515625 -10.140625 -9.515625 -27.671875q0.000000 -17.578125 9.515625 -27.703125q9.531250 -10.140625 26.093750 -10.140625q6.531250 0.000000 12.312500 1.734375q5.796875 1.734375 10.875000 5.203125"/>
<path id="c_ae70b0af174184799fa4976b9c5da571" d="M28.609375 -0.000000l-27.828125 -72.906250l10.296875 0.000000l23.109375 61.375000l23.140625 -61.375000l10.250000 0.000000l-27.781250 72.906250z"/>
<path id="c_53989f37671240acb447bc6046631699" d="M50.984375 16.609375l0.000000 6.968750l-51.968750 0.000000l0.000000 -6.968750z"/>
<path id="c_b672e4bee30772019085dff1098f516d" d="M53.515625 -70.515625l0.000000 9.625000q-5.609375 -2.687500 -10.593750 -4.000000q-4.984375 -1.328125 -9.625000 -1.328125q-8.046875 0.000000 -12.421875 3.125000q-4.375000 3.125000 -4.375000 8.890625q0.000000 4.843750 2.906250 7.312500q2.906250 2.453125 11.015625 3.968750l5.953125 1.218750q11.031250 2.109375 16.281250 7.406250q5.250000 5.296875 5.250000 14.171875q0.000000 10.609375 -7.109375 16.078125q-7.093750 5.468750 -20.812500 5.468750q-5.171875 0.000000 -11.015625 -1.171875q-5.828125 -1.171875 -12.078125 -3.468750l0.000000 -10.156250q6.000000 3.359375 11.765625 5.078125q5.765625 1.703125 11.328125 1.703125q8.437500 0.000000 13.031250 -3.312500q4.593750 -3.328125 4.593750 -9.484375q0.000000 -5.359375 -3.296875 -8.390625q-3.296875 -3.031250 -10.812500 -4.546875l-6.015625 -1.171875q-11.031250 -2.187500 -15.968750 -6.875000q-4.921875 -4.687500 -4.921875 -13.046875q0.000000 -9.671875 6.812500 -15.234375q6.812500 -5.562500 18.765625 -5.562500q5.140625 0.000000 10.453125 0.937500q5.328125 0.921875 10.890625 2.765625"/>
<path id="c_0f8c41144cfbf448378cb6fd1cc8e549" d="M18.312500 -70.218750l0.000000 15.531250l18.500000 0.000000l0.000000 6.984375l-18.500000 0.000000l0.000000 29.687500q0.000000 6.687500 1.828125 8.593750q1.828125 1.906250 7.453125 1.906250l9.218750 0.000000l0.000000 7.515625l-9.218750 0.000000q-10.406250 0.000000 -14.359375 -3.875000q-3.953125 -3.890625 -3.953125 -14.140625l0.000000 -29.687500l-6.593750 0.000000l0.000000 -6.984375l6.593750 0.000000l0.000000 -15.531250z"/>
<path id="c_01d93a582460e35a7945ca50d148ffeb" d="M34.281250 -27.484375q-10.890625 0.000000 -15.093750 2.484375q-4.203125 2.484375 -4.203125 8.500000q0.000000 4.781250 3.156250 7.593750q3.156250 2.796875 8.562500 2.796875q7.484375 0.000000 12.000000 -5.296875q4.515625 -5.296875 4.515625 -14.078125l0.000000 -2.000000zM52.203125 -31.203125l0.000000 31.203125l-8.984375 0.000000l0.000000 -8.296875q-3.078125 4.968750 -7.671875 7.343750q-4.593750 2.375000 -11.234375 2.375000q-8.390625 0.000000 -13.359375 -4.718750q-4.953125 -4.718750 -4.953125 -12.625000q0.000000 -9.218750 6.171875 -13.906250q6.187500 -4.687500 18.437500 -4.687500l12.609375 0.000000l0.000000 -0.890625q0.000000 -6.203125 -4.078125 -9.593750q-4.078125 -3.390625 -11.453125 -3.390625q-4.687500 0.000000 -9.140625 1.125000q-4.437500 1.125000 -8.531250 3.375000l0.000000 -8.312500q4.921875 -1.906250 9.562500 -2.843750q4.640625 -0.953125 9.031250 -0.953125q11.875000 0.000000 17.734375 6.156250q5.859375 6.140625 5.859375 18.640625"/>
<path id="c_0bce5afba2dc6b9024b26277c38ad8e8" d="M56.203125 -29.593750l0.000000 4.390625l-41.312500 0.000000q0.593750 9.281250 5.593750 14.140625q5.000000 4.859375 13.937500 4.859375q5.171875 0.000000 10.031250 -1.265625q4.859375 -1.265625 9.656250 -3.812500l0.000000 8.500000q-4.843750 2.046875 -9.921875 3.125000q-5.078125 1.078125 -10.296875 1.078125q-13.093750 0.000000 -20.734375 -7.609375q-7.640625 -7.625000 -7.640625 -20.625000q0.000000 -13.421875 7.250000 -21.296875q7.250000 -7.890625 19.562500 -7.890625q11.031250 0.000000 17.453125 7.109375q6.421875 7.093750 6.421875 19.296875M47.218750 -32.234375q-0.093750 -7.359375 -4.125000 -11.750000q-4.031250 -4.406250 -10.671875 -4.406250q-7.515625 0.000000 -12.031250 4.250000q-4.515625 4.250000 -5.203125 11.968750z"/>
<path id="c_6ec8d5749226675394676a5d2a3b468b" d="M41.109375 -46.296875q-1.515625 -0.875000 -3.296875 -1.281250q-1.781250 -0.421875 -3.921875 -0.421875q-7.625000 0.000000 -11.703125 4.953125q-4.078125 4.953125 -4.078125 14.234375l0.000000 28.812500l-9.031250 0.000000l0.000000 -54.687500l9.031250 0.000000l0.000000 8.500000q2.843750 -4.984375 7.375000 -7.390625q4.546875 -2.421875 11.046875 -2.421875q0.921875 0.000000 2.046875 0.125000q1.125000 0.109375 2.484375 0.359375z"/>
<path id="c_dcb78ab3124be785176d70a27dde1356" d="M9.078125 -75.984375l9.031250 0.000000l0.000000 44.875000l26.812500 -23.578125l11.468750 0.000000l-29.000000 25.578125l30.234375 29.109375l-11.718750 0.000000l-27.796875 -26.703125l0.000000 26.703125l-9.031250 0.000000z"/>
<path id="c_e3864de5dabf2f8dd9eee74726882ec1" d="M45.406250 -27.984375q0.000000 -9.765625 -4.031250 -15.125000q-4.015625 -5.375000 -11.296875 -5.375000q-7.218750 0.000000 -11.250000 5.375000q-4.031250 5.359375 -4.031250 15.125000q0.000000 9.718750 4.031250 15.093750q4.031250 5.375000 11.250000 5.375000q7.281250 0.000000 11.296875 -5.375000q4.031250 -5.375000 4.031250 -15.093750M54.390625 -6.781250q0.000000 13.953125 -6.203125 20.765625q-6.187500 6.812500 -18.984375 6.812500q-4.734375 0.000000 -8.937500 -0.703125q-4.203125 -0.703125 -8.156250 -2.171875l0.000000 -8.734375q3.953125 2.140625 7.812500 3.156250q3.859375 1.031250 7.859375 1.031250q8.843750 0.000000 13.234375 -4.609375q4.390625 -4.609375 4.390625 -13.937500l0.000000 -4.453125q-2.781250 4.843750 -7.125000 7.234375q-4.343750 2.390625 -10.406250 2.390625q-10.046875 0.000000 -16.203125 -7.656250q-6.156250 -7.671875 -6.156250 -20.328125q0.000000 -12.687500 6.156250 -20.343750q6.156250 -7.671875 16.203125 -7.671875q6.062500 0.000000 10.406250 2.390625q4.343750 2.390625 7.125000 7.218750l0.000000 -8.296875l8.984375 0.000000z"/>
<path id="c_1a1d9ef1e4ddee695bd67a282879f099" d="M8.593750 -75.984375l20.703125 0.000000l0.000000 6.984375l-11.718750 0.000000l0.000000 75.203125l11.718750 0.000000l0.000000 6.984375l-20.703125 0.000000z"/>
<path id="c_9c6d5cbc59c6231647eb409cc6b37bb3" d="M25.390625 -72.906250l8.296875 0.000000l-25.390625 82.187500l-8.296875 0.000000z"/>
<path id="c_f15a64fcd463ef4629c48bab42cde24c" d="M18.109375 -8.203125l0.000000 29.000000l-9.031250 0.000000l0.000000 -75.484375l9.031250 0.000000l0.000000 8.296875q2.843750 -4.875000 7.156250 -7.234375q4.328125 -2.375000 10.328125 -2.375000q9.968750 0.000000 16.187500 7.906250q6.234375 7.906250 6.234375 20.796875q0.000000 12.890625 -6.234375 20.812500q-6.218750 7.906250 -16.187500 7.906250q-6.000000 0.000000 -10.328125 -2.375000q-4.312500 -2.375000 -7.156250 -7.250000M48.687500 -27.296875q0.000000 -9.906250 -4.078125 -15.546875q-4.078125 -5.640625 -11.203125 -5.640625q-7.140625 0.000000 -11.218750 5.640625q-4.078125 5.640625 -4.078125 15.546875q0.000000 9.906250 4.078125 15.546875q4.078125 5.640625 11.218750 5.640625q7.125000 0.000000 11.203125 -5.640625q4.078125 -5.640625 4.078125 -15.546875"/>
<path id="c_5099edb83619131346ae654950954dea" d="M9.421875 -75.984375l8.984375 0.000000l0.000000 75.984375l-8.984375 0.000000z"/>
<path id="c_fe791a90f5471e2ab20a5ed41a7fa451" d="M54.890625 -33.015625l0.000000 33.015625l-8.984375 0.000000l0.000000 -32.718750q0.000000 -7.765625 -3.031250 -11.609375q-3.031250 -3.859375 -9.078125 -3.859375q-7.281250 0.000000 -11.484375 4.640625q-4.203125 4.625000 -4.203125 12.640625l0.000000 30.906250l-9.031250 0.000000l0.000000 -54.687500l9.031250 0.000000l0.000000 8.500000q3.234375 -4.937500 7.593750 -7.375000q4.375000 -2.437500 10.093750 -2.437500q9.421875 0.000000 14.250000 5.828125q4.843750 5.828125 4.843750 17.156250"/>
<path id="c_5bcf09947f6bf611091602c6fea1d302" d="M30.421875 -75.984375l0.000000 89.171875l-20.703125 0.000000l0.000000 -6.984375l11.671875 0.000000l0.000000 -75.203125l-11.671875 0.000000l0.000000 -6.984375z"/>
<path id="c_d41d8cd98f00b204e9800998ecf8427e" d=""/>
</defs>
<g style="fill: #000000; opacity: 1.000000" transform="translate(152.450000,403.270000)scale(0.180000)">
<use xlink:href="#c_a469f8ee191679fe73f3b765bd271597"/>
<use xlink:href="#c_ae70b0af174184799fa4976b9c5da571" x="69.824219"/>
<use xlink:href="#c_53989f37671240acb447bc6046631699" x="138.232422"/>
<use xlink:href="#c_b672e4bee30772019085dff1098f516d" x="188.232422"/>
<use xlink:href="#c_0f8c41144cfbf448378cb6fd1cc8e549" x="251.708984"/>
<use xlink:href="#c_01d93a582460e35a7945ca50d148ffeb" x="290.917969"/>
<use xlink:href="#c_0bce5afba2dc6b9024b26277c38ad8e8" x="352.197266"/>
<use xlink:href="#c_6ec8d5749226675394676a5d2a3b468b" x="413.720703"/>
<use xlink:href="#c_dcb78ab3124be785176d70a27dde1356" x="454.833984"/>
<use xlink:href="#c_0bce5afba2dc6b9024b26277c38ad8e8" x="509.119141"/>
<use xlink:href="#c_0bce5afba2dc6b9024b26277c38ad8e8" x="570.642578"/>
<use xlink:href="#c_6ec8d5749226675394676a5d2a3b468b" x="632.166016"/>
<use xlink:href="#c_0f8c41144cfbf448378cb6fd1cc8e549" x="673.279297"/>
<use xlink:href="#c_6ec8d5749226675394676a5d2a3b468b" x="712.488281"/>
<use xlink:href="#c_01d93a582460e35a7945ca50d148ffeb" x="753.601562"/>
<use xlink:href="#c_e3864de5dabf2f8dd9eee74726882ec1" x="814.880859"/>
<use xlink:href="#c_1a1d9ef1e4ddee695bd67a282879f099" x="878.357422"/>
<use xlink:href="#c_e3864de5dabf2f8dd9eee74726882ec1" x="917.371094"/>
<use xlink:href="#c_9c6d5cbc59c6231647eb409cc6b37bb3" x="980.847656"/>
<use xlink:href="#c_f15a64fcd463ef4629c48bab42cde24c" x="1014.539062"/>
<use xlink:href="#c_5099edb83619131346ae654950954dea" x="1078.015625"/>
<use xlink:href="#c_01d93a582460e35a7945ca50d148ffeb" x="1105.798828"/>
<use xlink:href="#c_fe791a90f5471e2ab20a5ed41a7fa451" x="1167.078125"/>
<use xlink:href="#c_0f8c41144cfbf448378cb6fd1cc8e549" x="1230.457031"/>
<use xlink:href="#c_5bcf09947f6bf611091602c6fea1d302" x="1269.666016"/>
<use xlink:href="#c_d41d8cd98f00b204e9800998ecf8427e" x="1308.679688"/>
<use xlink:href="#c_ed3f3ed3ebfbd18bcb9c012009a68ad1" x="1340.466797"/>
<use xlink:href="#c_7a2040fe3b94fcd41d0a72c84e93b115" x="1404.089844"/>
<use xlink:href="#c_42baa63129a918535c52adb20d687ea7" x="1467.712891"/>
<use xlink:href="#c_42baa63129a918535c52adb20d687ea7" x="1531.335937"/>
</g>
</g>
</g>
<g id="matplotlib.axis2">
<g id="ytick1">
<g id="line2d12">
<defs><path id="m3400efa6b1638b3fea9e19e898273957" d="M0.000000 0.000000L4.000000 0.000000"/></defs>
<g ><use style="fill: none; stroke: #000000; stroke-width: 0.500000; stroke-linejoin: round; stroke-linecap: butt;  opacity: 1.000000" xlink:href="#m3400efa6b1638b3fea9e19e898273957" x="72.000000" y="371.520000"/>
</g></g>
<g id="line2d13">
<defs><path id="m20b58b2501143cb5e0a5e8f1ef6f1643" d="M0.000000 0.000000L-4.000000 0.000000"/></defs>
<g ><use style="fill: none; stroke: #000000; stroke-width: 0.500000; stroke-linejoin: round; stroke-linecap: butt;  opacity: 1.000000" xlink:href="#m20b58b2501143cb5e0a5e8f1ef6f1643" x="518.400000" y="371.520000"/>
</g></g>
<g id="text7">
<g style="fill: #000000; opacity: 1.000000" transform="translate(42.859375,375.887187)scale(0.120000)">
<use xlink:href="#c_7a2040fe3b94fcd41d0a72c84e93b115"/>
<use xlink:href="#c_ed3e21196fb739f392806f09ca0594ef" x="63.623047"/>
<use xlink:href="#c_42baa63129a918535c52adb20d687ea7" x="95.410156"/>
<use xlink:href="#c_7a2040fe3b94fcd41d0a72c84e93b115" x="159.033203"/>
</g>
</g>
</g>
<g id="ytick2">
<g id="line2d14">
<g ><use style="fill: none; stroke: #000000; stroke-width: 0.500000; stroke-linejoin: round; stroke-linecap: butt;  opacity: 1.000000" xlink:href="#m3400efa6b1638b3fea9e19e898273957" x="72.000000" y="305.856000"/>
</g></g>
<g id="line2d15">
<g ><use style="fill: none; stroke: #000000; stroke-width: 0.500000; stroke-linejoin: round; stroke-linecap: butt;  opacity: 1.000000" xlink:href="#m20b58b2501143cb5e0a5e8f1ef6f1643" x="518.400000" y="305.856000"/>
</g></g>
<g id="text8">
<g style="fill: #000000; opacity: 1.000000" transform="translate(43.109375,310.223187)scale(0.120000)">
<use xlink:href="#c_7a2040fe3b94fcd41d0a72c84e93b115"/>
<use xlink:href="#c_ed3e21196fb739f392806f09ca0594ef" x="63.623047"/>
<use xlink:href="#c_42baa63129a918535c52adb20d687ea7" x="95.410156"/>
<use xlink:href="#c_1260a2df50f305f3db244e29828f968e" x="159.033203"/>
</g>
</g>
</g>
<g id="ytick3">
<g id="line2d16">
<g ><use style="fill: none; stroke: #000000; stroke-width: 0.500000; stroke-linejoin: round; stroke-linecap: butt;  opacity: 1.000000" xlink:href="#m3400efa6b1638b3fea9e19e898273957" x="72.000000" y="240.192000"/>
</g></g>
<g id="line2d17">
<g ><use style="fill: none; stroke: #000000; stroke-width: 0.500000; stroke-linejoin: round; stroke-linecap: butt;  opacity: 1.000000" xlink:href="#m20b58b2501143cb5e0a5e8f1ef6f1643" x="518.400000" y="240.192000"/>
</g></g>
<g id="text9">
<g style="fill: #000000; opacity: 1.000000" transform="translate(42.859375,244.559187)scale(0.120000)">
<use xlink:href="#c_7a2040fe3b94fcd41d0a72c84e93b115"/>
<use xlink:href="#c_ed3e21196fb739f392806f09ca0594ef" x="63.623047"/>
<use xlink:href="#c_ed3f3ed3ebfbd18bcb9c012009a68ad1" x="95.410156"/>
<use xlink:href="#c_7a2040fe3b94fcd41d0a72c84e93b115" x="159.033203"/>
</g>
</g>
</g>
<g id="ytick4">
<g id="line2d18">
<g ><use style="fill: none; stroke: #000000; stroke-width: 0.500000; stroke-linejoin: round; stroke-linecap: butt;  opacity: 1.000000" xlink:href="#m3400efa6b1638b3fea9e19e898273957" x="72.000000" y="174.528000"/>
</g></g>
<g id="line2d19">
<g ><use style="fill: none; stroke: #000000; stroke-width: 0.500000; stroke-linejoin: round; stroke-linecap: butt;  opacity: 1.000000" xlink:href="#m20b58b2501143cb5e0a5e8f1ef6f1643" x="518.400000" y="174.528000"/>
</g></g>
<g id="text10">
<g style="fill: #000000; opacity: 1.000000" transform="translate(43.109375,178.895187)scale(0.120000)">
<use xlink:href="#c_7a2040fe3b94fcd41d0a72c84e93b115"/>
<use xlink:href="#c_ed3e21196fb739f392806f09ca0594ef" x="63.623047"/>
<use xlink:href="#c_ed3f3ed3ebfbd18bcb9c012009a68ad1" x="95.410156"/>
<use xlink:href="#c_1260a2df50f305f3db244e29828f968e" x="159.033203"/>
</g>
</g>
</g>
<g id="ytick5">
<g id="line2d20">
<g ><use style="fill: none; stroke: #000000; stroke-width: 0.500000; stroke-linejoin: round; stroke-linecap: butt;  opacity: 1.000000" xlink:href="#m3400efa6b1638b3fea9e19e898273957" x="72.000000" y="108.864000"/>
</g></g>
<g id="line2d21">
<g ><use style="fill: none; stroke: #000000; stroke-width: 0.500000; stroke-linejoin: round; stroke-linecap: butt;  opacity: 1.000000" xlink:href="#m20b58b2501143cb5e0a5e8f1ef6f1643" x="518.400000" y="108.864000"/>
</g></g>
<g id="text11">
<g style="fill: #000000; opacity: 1.000000" transform="translate(42.859375,113.231187)scale(0.120000)">
<use xlink:href="#c_7a2040fe3b94fcd41d0a72c84e93b115"/>
<use xlink:href="#c_ed3e21196fb739f392806f09ca0594ef" x="63.623047"/>
<use xlink:href="#c_3dcfa38a02242cb63ec6726c6e70be7a" x="95.410156"/>
<use xlink:href="#c_7a2040fe3b94fcd41d0a72c84e93b115" x="159.033203"/>
</g>
</g>
</g>
<g id="ytick6">
<g id="line2d22">
<g ><use style="fill: none; stroke: #000000; stroke-width: 0.500000; stroke-linejoin: round; stroke-linecap: butt;  opacity: 1.000000" xlink:href="#m3400efa6b1638b3fea9e19e898273957" x="72.000000" y="43.200000"/>
</g></g>
<g id="line2d23">
<g ><use style="fill: none; stroke: #000000; stroke-width: 0.500000; stroke-linejoin: round; stroke-linecap: butt;  opacity: 1.000000" xlink:href="#m20b58b2501143cb5e0a5e8f1ef6f1643" x="518.400000" y="43.200000"/>
</g></g>
<g id="text12">
<g style="fill: #000000; opacity: 1.000000" transform="translate(43.109375,47.567187)scale(0.120000)">
<use xlink:href="#c_7a2040fe3b94fcd41d0a72c84e93b115"/>
<use xlink:href="#c_ed3e21196fb739f392806f09ca0594ef" x="63.623047"/>
<use xlink:href="#c_3dcfa38a02242cb63ec6726c6e70be7a" x="95.410156"/>
<use xlink:href="#c_1260a2df50f305f3db244e29828f968e" x="159.033203"/>
</g>
</g>
</g>
<g id="text13">
<g style="fill: #000000; opacity: 1.000000" transform="translate(37.859375,345.789688)rotate(-90.0)scale(0.180000)">
<use xlink:href="#c_a469f8ee191679fe73f3b765bd271597"/>
<use xlink:href="#c_ae70b0af174184799fa4976b9c5da571" x="69.824219"/>
<use xlink:href="#c_53989f37671240acb447bc6046631699" x="138.232422"/>
<use xlink:href="#c_b672e4bee30772019085dff1098f516d" x="188.232422"/>
<use xlink:href="#c_0f8c41144cfbf448378cb6fd1cc8e549" x="251.708984"/>
<use xlink:href="#c_01d93a582460e35a7945ca50d148ffeb" x="290.917969"/>
<use xlink:href="#c_0bce5afba2dc6b9024b26277c38ad8e8" x="352.197266"/>
<use xlink:href="#c_6ec8d5749226675394676a5d2a3b468b" x="413.720703"/>
<use xlink:href="#c_dcb78ab3124be785176d70a27dde1356" x="454.833984"/>
<use xlink:href="#c_0bce5afba2dc6b9024b26277c38ad8e8" x="509.119141"/>
<use xlink:href="#c_0bce5afba2dc6b9024b26277c38ad8e8" x="570.642578"/>
<use xlink:href="#c_6ec8d5749226675394676a5d2a3b468b" x="632.166016"/>
<use xlink:href="#c_0f8c41144cfbf448378cb6fd1cc8e549" x="673.279297"/>
<use xlink:href="#c_6ec8d5749226675394676a5d2a3b468b" x="712.488281"/>
<use xlink:href="#c_01d93a582460e35a7945ca50d148ffeb" x="753.601562"/>
<use xlink:href="#c_e3864de5dabf2f8dd9eee74726882ec1" x="814.880859"/>
<use xlink:href="#c_1a1d9ef1e4ddee695bd67a282879f099" x="878.357422"/>
<use xlink:href="#c_e3864de5dabf2f8dd9eee74726882ec1" x="917.371094"/>
<use xlink:href="#c_9c6d5cbc59c6231647eb409cc6b37bb3" x="980.847656"/>
<use xlink:href="#c_f15a64fcd463ef4629c48bab42cde24c" x="1014.539062"/>
<use xlink:href="#c_5099edb83619131346ae654950954dea" x="1078.015625"/>
<use xlink:href="#c_01d93a582460e35a7945ca50d148ffeb" x="1105.798828"/>
<use xlink:href="#c_fe791a90f5471e2ab20a5ed41a7fa451" x="1167.078125"/>
<use xlink:href="#c_0f8c41144cfbf448378cb6fd1cc8e549" x="1230.457031"/>
<use xlink:href="#c_5bcf09947f6bf611091602c6fea1d302" x="1269.666016"/>
<use xlink:href="#c_d41d8cd98f00b204e9800998ecf8427e" x="1308.679688"/>
<use xlink:href="#c_ed3f3ed3ebfbd18bcb9c012009a68ad1" x="1340.466797"/>
<use xlink:href="#c_7a2040fe3b94fcd41d0a72c84e93b115" x="1404.089844"/>
<use xlink:href="#c_42baa63129a918535c52adb20d687ea7" x="1467.712891"/>
<use xlink:href="#c_ed3f3ed3ebfbd18bcb9c012009a68ad1" x="1531.335937"/>
</g>
</g>
</g>
<g id="patch3">
<path style="fill: none; stroke: #000000; stroke-width: 1.000000; stroke-linejoin: round; stroke-linecap: square;  opacity: 1.000000"  d="M72.000000 43.200000L518.400000 43.200000"/>
</g>
<g id="patch4">
<path style="fill: none; stroke: #000000; stroke-width: 1.000000; stroke-linejoin: round; stroke-linecap: square;  opacity: 1.000000"  d="M518.400000 371.520000L518.400000 43.200000"/>
</g>
<g id="patch5">
<path style="fill: none; stroke: #000000; stroke-width: 1.000000; stroke-linejoin: round; stroke-linecap: square;  opacity: 1.000000"  d="M72.000000 371.520000L518.400000 371.520000"/>
</g>
<g id="patch6">
<path style="fill: none; stroke: #000000; stroke-width: 1.000000; stroke-linejoin: round; stroke-linecap: square;  opacity: 1.000000"  d="M72.000000 371.520000L72.000000 43.200000"/>
</g>
<g id="legend1">
<g id="patch7">
<path style="fill: #ffffff; stroke: #000000; stroke-width: 1.000000; stroke-linejoin: round; stroke-linecap: square;  opacity: 1.000000"  d="M79.200000 72.763750L319.774375 72.763750L319.774375 50.400000
L79.200000 50.400000L79.200000 72.763750z"/>
</g>
<g id="line2d24">
<path style="fill: none; stroke: #ff0000; stroke-width: 1.000000; stroke-linejoin: round; stroke-linecap: square;  opacity: 1.000000"  d="M89.280000 61.760625L109.440000 61.760625"/>
</g>
<g id="line2d25">
</g>
<g id="text14">
<defs>
<path id="c_8c0379a31aa3b07b28207e25658c6113" d="M10.593750 -45.406250l62.593750 0.000000l0.000000 8.203125l-62.593750 0.000000zM10.593750 -25.484375l62.593750 0.000000l0.000000 8.296875l-62.593750 0.000000z"/>
<path id="c_a0416418d96557a09b8c1332d34883ba" d="M37.796875 -64.312500l-24.906250 38.921875l24.906250 0.000000zM35.203125 -72.906250l12.406250 0.000000l0.000000 47.515625l10.406250 0.000000l0.000000 8.203125l-10.406250 0.000000l0.000000 17.187500l-9.812500 0.000000l0.000000 -17.187500l-32.906250 0.000000l0.000000 -9.515625z"/>
<path id="c_956f18cfdaf972f35a6c2b4aaac2532b" d="M8.203125 -72.906250l46.875000 0.000000l0.000000 4.203125l-26.468750 68.703125l-10.296875 0.000000l24.906250 -64.593750l-35.015625 0.000000z"/>
<path id="c_bef35738d52871942e50b9de9b122bab" d="M31.781250 -34.625000q-7.031250 0.000000 -11.062500 3.765625q-4.015625 3.765625 -4.015625 10.343750q0.000000 6.593750 4.015625 10.359375q4.031250 3.765625 11.062500 3.765625q7.031250 0.000000 11.078125 -3.781250q4.062500 -3.796875 4.062500 -10.343750q0.000000 -6.578125 -4.031250 -10.343750q-4.015625 -3.765625 -11.109375 -3.765625M21.921875 -38.812500q-6.343750 -1.562500 -9.890625 -5.906250q-3.531250 -4.359375 -3.531250 -10.609375q0.000000 -8.734375 6.218750 -13.812500q6.234375 -5.078125 17.062500 -5.078125q10.890625 0.000000 17.093750 5.078125q6.203125 5.078125 6.203125 13.812500q0.000000 6.250000 -3.546875 10.609375q-3.531250 4.343750 -9.828125 5.906250q7.125000 1.656250 11.093750 6.500000q3.984375 4.828125 3.984375 11.796875q0.000000 10.609375 -6.468750 16.281250q-6.468750 5.656250 -18.531250 5.656250q-12.046875 0.000000 -18.531250 -5.656250q-6.468750 -5.671875 -6.468750 -16.281250q0.000000 -6.968750 4.000000 -11.796875q4.015625 -4.843750 11.140625 -6.500000M18.312500 -54.390625q0.000000 5.656250 3.531250 8.828125q3.546875 3.171875 9.937500 3.171875q6.359375 0.000000 9.937500 -3.171875q3.593750 -3.171875 3.593750 -8.828125q0.000000 -5.671875 -3.593750 -8.843750q-3.578125 -3.171875 -9.937500 -3.171875q-6.390625 0.000000 -9.937500 3.171875q-3.531250 3.171875 -3.531250 8.843750"/>
<path id="c_518d586bee075aa0153eaebfcb5ab11f" d="M19.671875 -64.796875l0.000000 27.390625l12.406250 0.000000q6.890625 0.000000 10.640625 -3.562500q3.765625 -3.562500 3.765625 -10.156250q0.000000 -6.546875 -3.765625 -10.109375q-3.750000 -3.562500 -10.640625 -3.562500zM9.812500 -72.906250l22.265625 0.000000q12.265625 0.000000 18.531250 5.546875q6.281250 5.546875 6.281250 16.234375q0.000000 10.796875 -6.281250 16.312500q-6.265625 5.515625 -18.531250 5.515625l-12.406250 0.000000l0.000000 29.296875l-9.859375 0.000000z"/>
<path id="c_cd96f817f3cab988d24a2b49a5577fe6" d="M10.984375 -1.515625l0.000000 -8.984375q3.718750 1.765625 7.515625 2.687500q3.812500 0.921875 7.484375 0.921875q9.765625 0.000000 14.906250 -6.562500q5.156250 -6.562500 5.890625 -19.953125q-2.828125 4.203125 -7.187500 6.453125q-4.343750 2.250000 -9.609375 2.250000q-10.937500 0.000000 -17.312500 -6.609375q-6.375000 -6.625000 -6.375000 -18.109375q0.000000 -11.218750 6.640625 -18.000000q6.640625 -6.796875 17.671875 -6.796875q12.656250 0.000000 19.312500 9.703125q6.671875 9.687500 6.671875 28.140625q0.000000 17.234375 -8.187500 27.515625q-8.171875 10.281250 -21.984375 10.281250q-3.718750 0.000000 -7.531250 -0.734375q-3.796875 -0.734375 -7.906250 -2.203125M30.609375 -32.421875q6.640625 0.000000 10.515625 -4.531250q3.890625 -4.546875 3.890625 -12.468750q0.000000 -7.859375 -3.890625 -12.421875q-3.875000 -4.562500 -10.515625 -4.562500q-6.640625 0.000000 -10.515625 4.562500q-3.875000 4.562500 -3.875000 12.421875q0.000000 7.921875 3.875000 12.468750q3.875000 4.531250 10.515625 4.531250"/>
<path id="c_cc8d6d580d1b10c8632f7a42cd53db8a" d="M33.015625 -40.375000q-6.640625 0.000000 -10.531250 4.546875q-3.875000 4.531250 -3.875000 12.437500q0.000000 7.859375 3.875000 12.437500q3.890625 4.562500 10.531250 4.562500q6.640625 0.000000 10.515625 -4.562500q3.875000 -4.578125 3.875000 -12.437500q0.000000 -7.906250 -3.875000 -12.437500q-3.875000 -4.546875 -10.515625 -4.546875M52.593750 -71.296875l0.000000 8.984375q-3.718750 -1.750000 -7.500000 -2.671875q-3.781250 -0.937500 -7.500000 -0.937500q-9.765625 0.000000 -14.921875 6.593750q-5.140625 6.593750 -5.875000 19.921875q2.875000 -4.250000 7.218750 -6.515625q4.359375 -2.265625 9.578125 -2.265625q10.984375 0.000000 17.359375 6.671875q6.375000 6.656250 6.375000 18.125000q0.000000 11.234375 -6.640625 18.031250q-6.640625 6.781250 -17.671875 6.781250q-12.656250 0.000000 -19.343750 -9.687500q-6.687500 -9.703125 -6.687500 -28.109375q0.000000 -17.281250 8.203125 -27.562500q8.203125 -10.281250 22.015625 -10.281250q3.718750 0.000000 7.500000 0.734375q3.781250 0.734375 7.890625 2.187500"/>
<path id="c_7b26b13f539f13a4c64eef23b6952d29" d="M4.890625 -31.390625l26.312500 0.000000l0.000000 8.000000l-26.312500 0.000000z"/>
</defs>
<g style="fill: #000000; opacity: 1.000000" transform="translate(125.280000,66.800625)scale(0.144000)">
<use xlink:href="#c_6ec8d5749226675394676a5d2a3b468b"/>
<use xlink:href="#c_d41d8cd98f00b204e9800998ecf8427e" x="41.113281"/>
<use xlink:href="#c_8c0379a31aa3b07b28207e25658c6113" x="72.900391"/>
<use xlink:href="#c_d41d8cd98f00b204e9800998ecf8427e" x="156.689453"/>
<use xlink:href="#c_7a2040fe3b94fcd41d0a72c84e93b115" x="188.476562"/>
<use xlink:href="#c_ed3e21196fb739f392806f09ca0594ef" x="252.099609"/>
<use xlink:href="#c_a0416418d96557a09b8c1332d34883ba" x="283.886719"/>
<use xlink:href="#c_3dcfa38a02242cb63ec6726c6e70be7a" x="347.509766"/>
<use xlink:href="#c_956f18cfdaf972f35a6c2b4aaac2532b" x="411.132812"/>
<use xlink:href="#c_a0416418d96557a09b8c1332d34883ba" x="474.755859"/>
<use xlink:href="#c_bef35738d52871942e50b9de9b122bab" x="538.378906"/>
<use xlink:href="#c_d41d8cd98f00b204e9800998ecf8427e" x="602.001953"/>
<use xlink:href="#c_d41d8cd98f00b204e9800998ecf8427e" x="633.789062"/>
<use xlink:href="#c_518d586bee075aa0153eaebfcb5ab11f" x="665.576172"/>
<use xlink:href="#c_d41d8cd98f00b204e9800998ecf8427e" x="725.878906"/>
<use xlink:href="#c_8c0379a31aa3b07b28207e25658c6113" x="757.666016"/>
<use xlink:href="#c_d41d8cd98f00b204e9800998ecf8427e" x="841.455078"/>
<use xlink:href="#c_cd96f817f3cab988d24a2b49a5577fe6" x="873.242188"/>
<use xlink:href="#c_ed3e21196fb739f392806f09ca0594ef" x="936.865234"/>
<use xlink:href="#c_cc8d6d580d1b10c8632f7a42cd53db8a" x="968.652344"/>
<use xlink:href="#c_956f18cfdaf972f35a6c2b4aaac2532b" x="1032.275391"/>
<use xlink:href="#c_0bce5afba2dc6b9024b26277c38ad8e8" x="1095.898438"/>
<use xlink:href="#c_7b26b13f539f13a4c64eef23b6952d29" x="1157.421875"/>
<use xlink:href="#c_7a2040fe3b94fcd41d0a72c84e93b115" x="1193.505859"/>
<use xlink:href="#c_3dcfa38a02242cb63ec6726c6e70be7a" x="1257.128906"/>
</g>
</g>
</g>
</g>
</g>
</svg>
